<svg version="1.1" id="Layer_1" xmlns="http://www.w3.org/2000/svg" xmlns:xlink="http://www.w3.org/1999/xlink" x="0px" y="0px"
	 width="100%" viewBox="0 0 512 512" enable-background="new 0 0 512 512" xml:space="preserve">
<path fill="#000000" opacity="1.000000" stroke="none" 
	d="
M379.000000,513.000000 
	C365.979095,513.000000 352.958221,513.000000 339.252075,512.748230 
	C322.322479,500.844788 306.020416,489.272095 289.881775,477.475800 
	C286.592316,475.071411 283.312988,474.028320 279.284241,474.039825 
	C244.954620,474.137939 210.624603,474.094269 176.294708,474.106018 
	C169.795364,474.108246 163.330566,473.996979 156.872040,472.929962 
	C108.816254,464.990417 74.600357,424.765533 74.599228,376.071136 
	C74.598640,351.073608 74.778557,326.074463 74.552353,301.079010 
	C74.350662,278.792755 79.958359,258.300171 92.281158,239.707916 
	C93.919930,237.235397 94.639656,234.691208 94.630066,231.740051 
	C94.571022,213.575409 94.476768,195.408798 94.703758,177.246719 
	C94.761200,172.651108 92.884727,170.179977 88.919853,168.488281 
	C80.033157,164.696564 71.161903,160.859253 62.383991,156.823822 
	C41.971882,147.439850 20.747856,139.846893 1.000000,129.000000 
	C1.000000,124.643097 1.000000,120.286201 1.302571,115.306732 
	C4.521337,112.421066 7.779158,110.777977 11.158816,109.332939 
	C19.421604,105.800041 27.677525,102.250694 35.918999,98.668365 
	C105.062653,68.613640 174.198685,38.541367 243.347961,8.499589 
	C252.329727,4.597476 261.304169,4.440235 270.427582,8.398336 
	C348.598511,42.312019 426.798523,76.158630 504.996490,110.009972 
	C507.925385,111.277840 510.672913,112.789749 513.000000,115.000000 
	C513.000000,119.689255 513.000000,124.378510 512.702026,129.712708 
	C504.472534,134.994171 495.919312,138.327606 487.503235,141.895187 
	C483.054962,143.780823 481.147095,146.172852 481.259491,151.202515 
	C481.586945,165.853149 481.466217,180.516678 481.328827,195.173355 
	C481.276306,200.773209 482.362030,206.033722 484.319672,211.238525 
	C489.181335,224.163940 494.054138,237.089066 498.624054,250.118973 
	C501.711090,258.920837 497.864532,264.094177 488.533356,264.160736 
	C477.873596,264.236755 467.212433,264.228455 456.552643,264.154236 
	C446.052460,264.081116 442.375916,258.901825 445.933167,248.881470 
	C449.998840,237.428802 454.449829,226.113098 458.535492,214.667236 
	C459.981689,210.615814 462.441101,206.773834 462.488586,202.374771 
	C462.646790,187.718597 462.569672,173.059830 462.568787,158.402054 
	C462.568542,154.379623 460.819122,153.485489 457.169739,155.128967 
	C446.239136,160.051437 435.290070,164.940125 424.245148,169.597565 
	C420.392090,171.222321 419.259064,173.711380 419.296173,177.719803 
	C419.461121,195.540985 419.428131,213.365067 419.305969,231.186981 
	C419.281952,234.690186 420.221466,237.553574 422.167603,240.461533 
	C433.676300,257.657990 439.358398,276.673767 439.369202,297.367981 
	C439.383392,324.518524 439.325592,351.669189 439.412750,378.819458 
	C439.429413,384.017944 438.773834,389.108765 437.764008,394.151031 
	C431.314301,426.355011 412.652374,449.389801 384.138184,464.819427 
	C380.545105,466.763702 379.249268,469.040436 379.280426,473.054108 
	C379.383789,486.367859 379.121826,499.684479 379.000000,513.000000 
M126.055969,231.559235 
	C105.111946,247.537216 95.239845,269.274750 94.514366,295.043701 
	C93.834717,319.185028 94.432228,343.360535 94.305008,367.520172 
	C94.262741,375.545319 94.994308,383.456482 96.336609,391.346161 
	C102.271698,426.230713 134.594284,453.642700 169.900070,453.647461 
	C208.056488,453.652649 246.213150,453.677673 284.369080,453.531769 
	C290.535034,453.508179 295.752319,455.235992 300.428589,459.170349 
	C317.398254,473.447601 335.358185,486.426392 353.381836,499.316071 
	C354.774628,500.312164 355.975159,502.048401 358.151184,501.286407 
	C359.064819,499.505463 358.687347,497.639435 358.693756,495.841217 
	C358.730591,485.510742 358.937653,475.173065 358.623840,464.851868 
	C358.395935,457.356659 361.484161,452.661621 368.324188,449.714905 
	C401.517700,435.415100 418.148224,409.297424 419.288940,373.953613 
	C420.206818,345.515198 420.612732,316.981720 418.778961,288.525269 
	C416.231934,249.000015 386.430481,219.760941 347.019348,217.266678 
	C318.071503,215.434631 290.148102,218.595108 263.944580,231.942139 
	C259.646240,234.131531 255.300613,233.954163 250.941010,231.973969 
	C246.240738,229.839081 241.549561,227.672028 236.770828,225.724075 
	C215.409866,217.016861 193.028122,215.948166 170.414871,217.342834 
	C154.745544,218.309235 139.828812,222.080231 126.055969,231.559235 
z"/>
<path fill="#000000" opacity="1.000000" stroke="none" 
	d="
M198.140289,358.558655 
	C202.874374,358.527771 206.136063,360.693787 208.802841,363.870819 
	C229.666489,388.726501 268.204132,390.148651 292.396759,375.732391 
	C297.301208,372.809814 301.623718,369.216614 305.108734,364.636688 
	C306.104218,363.328461 307.312134,362.121460 308.615662,361.119019 
	C313.020111,357.731873 318.944855,357.709778 322.398071,360.939728 
	C326.009308,364.317474 326.481079,369.838226 323.153137,374.629639 
	C316.841095,383.717346 308.239655,390.203400 298.610016,395.412506 
	C267.495026,412.243866 226.097137,407.704224 200.522812,384.677673 
	C196.919067,381.432983 193.560455,377.954224 191.121567,373.735229 
	C187.637573,367.708405 190.087326,358.630585 198.140289,358.558655 
z"/>
<path fill="#000000" opacity="1.000000" stroke="none" 
	d="
M184.914047,282.912354 
	C193.217728,275.542145 201.337769,276.403076 207.729630,285.037964 
	C215.229904,295.170227 215.269760,313.932251 207.812836,324.199799 
	C200.685181,334.013947 189.346512,333.705353 182.722977,323.516937 
	C175.195190,311.937592 176.046265,294.237701 184.914047,282.912354 
z"/>
<path fill="#000000" opacity="1.000000" stroke="none" 
	d="
M317.246765,277.890015 
	C324.521484,278.020782 329.089264,281.740875 332.346069,287.442932 
	C338.772614,298.694672 337.485046,316.381073 329.580872,325.620270 
	C322.873566,333.460480 313.413635,333.323364 306.937500,325.292114 
	C298.595245,314.946503 298.408203,295.081512 306.524323,284.497681 
	C309.174744,281.041382 312.668427,278.971466 317.246765,277.890015 
z"/>
</svg>