<svg xmlns="http://www.w3.org/2000/svg" width="516" height="525" viewBox="0 0 516 525" version="1.1"><path d="M 248.500 5.894 C 246.850 6.339, 224.125 16.049, 198 27.474 C 152.878 47.206, 112.410 64.791, 72.500 82.009 C 27.401 101.467, 5.391 111.298, 2.803 113.140 C 0.279 114.937, 0 115.719, 0 120.987 C 0 126.514, 0.180 126.946, 3.250 128.820 C 6.077 130.545, 20.107 136.785, 74.500 160.509 C 81.100 163.388, 88.188 166.559, 90.250 167.557 L 94 169.370 94 202.755 L 94 236.140 90.899 240.647 C 86.004 247.762, 80.095 261.228, 77.233 271.794 L 74.604 281.500 74.206 330.500 C 73.777 383.251, 74.186 389.932, 78.736 404.500 C 88.494 435.741, 111.983 458.320, 145.500 468.675 L 154.500 471.456 219.297 471.775 L 284.095 472.095 312.297 492.205 C 327.809 503.265, 342.975 514.333, 346 516.802 C 352.471 522.081, 356.605 524, 361.508 524 C 366.257 524, 372.287 520.809, 375.166 516.773 C 377.434 513.593, 377.508 512.814, 377.799 489.351 L 378.098 465.202 381.206 463.914 C 392.013 459.438, 411.007 443.367, 419.516 431.500 C 425.844 422.675, 431.824 410.035, 434.834 399.121 L 437.488 389.500 437.476 335.500 L 437.465 281.500 434.732 271.500 C 431.829 260.881, 426.069 247.867, 421.028 240.541 L 417.973 236.100 418.236 202.876 L 418.500 169.652 439.500 160.378 C 451.050 155.278, 460.837 151.081, 461.250 151.052 C 461.663 151.024, 462 162.914, 462 177.476 L 462 203.951 453 228 C 448.050 241.227, 444 253.183, 444 254.570 C 444 255.956, 445.105 258.195, 446.455 259.545 L 448.909 262 470.820 262 C 491.759 262, 492.852 261.904, 495.477 259.839 C 497.870 257.957, 498.161 257.152, 497.739 253.589 C 497.472 251.340, 493.365 238.976, 488.612 226.114 L 479.971 202.729 480.236 172.690 L 480.500 142.652 495 136.281 C 514.373 127.770, 517.760 124.039, 513.081 116.365 C 510.982 112.922, 508.568 111.636, 485.500 101.671 C 477.250 98.107, 443.725 83.625, 411 69.488 C 378.275 55.351, 331.925 35.239, 308 24.794 C 268.649 7.615, 263.880 5.770, 258 5.445 C 254.425 5.248, 250.150 5.450, 248.500 5.894 M 165 216.054 C 147.103 218.287, 132.392 223.921, 121.500 232.715 C 110.104 241.915, 100.339 257.431, 95.752 273.622 C 93.570 281.324, 93.521 282.684, 93.522 334.500 L 93.524 387.500 96.316 396.451 C 105.224 425.013, 124.765 443.907, 152.817 451.081 C 159.834 452.876, 164.502 453, 224.949 453 C 284.923 453, 289.826 453.128, 293.039 454.778 C 294.942 455.756, 302.125 461.047, 309 466.536 C 320.203 475.481, 357.299 502.999, 358.157 503.001 C 358.346 503.001, 358.380 492.989, 358.233 480.751 C 357.907 453.495, 357.711 454.019, 370.491 447.947 C 388.358 439.459, 402.210 426.019, 410.118 409.500 C 418.424 392.151, 419.261 384.171, 418.734 327.357 C 418.269 277.278, 418.173 276.347, 411.985 261.804 C 403.677 242.281, 388.319 227.201, 370.336 220.909 C 360.674 217.529, 351.262 216.013, 336 215.378 C 311.465 214.356, 291.120 218.074, 269.306 227.565 C 263.699 230.004, 257.849 232, 256.306 231.999 C 254.763 231.999, 250.634 230.643, 247.132 228.986 C 237.272 224.321, 224.863 220.215, 213.688 217.920 C 201.955 215.509, 177.023 214.554, 165 216.054 M 189.500 278.412 C 179.786 282.729, 174.461 299.700, 178.467 313.575 C 182.302 326.857, 192.113 333.277, 200.634 328.081 C 216.131 318.632, 215.221 285.163, 199.282 278.371 C 195.328 276.686, 193.364 276.694, 189.500 278.412 M 314.500 277.708 C 310.474 278.706, 305.708 283.393, 303.129 288.893 C 300.900 293.646, 300.500 295.870, 300.500 303.500 C 300.500 316.373, 304.264 324.443, 312.200 328.589 C 322.404 333.920, 333.271 323.085, 334.689 306.166 C 336.100 289.336, 325.856 274.896, 314.500 277.708 M 191.455 360.455 C 186.277 365.632, 188.895 373.201, 199.092 382.534 C 208.527 391.170, 218.261 396.577, 231.693 400.640 C 239.532 403.012, 242.148 403.306, 255.500 403.320 C 267.759 403.332, 271.962 402.940, 278.500 401.177 C 295.381 396.625, 313.871 384.950, 320.824 374.451 C 324.677 368.635, 324.830 365.140, 321.411 361.077 C 319.304 358.572, 318.068 358, 314.766 358 C 311.092 358, 310.087 358.627, 304.105 364.658 C 290.743 378.127, 279.080 383.067, 258.960 383.779 C 245.083 384.271, 238.427 383.094, 227.566 378.230 C 221.315 375.431, 212.336 368.741, 208.145 363.760 C 203.038 357.691, 195.676 356.233, 191.455 360.455" stroke="none" fill="#172d43" fill-rule="evenodd"/><path d="M 0 57.568 L 0 115.136 2.803 113.140 C 5.391 111.298, 27.401 101.467, 72.500 82.009 C 117.207 62.721, 154.060 46.685, 199 26.963 L 247.500 5.679 256 5.648 L 264.500 5.618 308 24.701 C 331.925 35.197, 378.275 55.351, 411 69.488 C 443.725 83.625, 477.250 98.107, 485.500 101.671 C 508.568 111.636, 510.982 112.922, 513.081 116.365 C 517.760 124.039, 514.373 127.770, 495 136.281 L 480.500 142.652 480.236 172.690 L 479.971 202.729 488.612 226.114 C 493.365 238.976, 497.472 251.340, 497.739 253.589 C 498.161 257.152, 497.870 257.957, 495.477 259.839 C 492.852 261.904, 491.759 262, 470.820 262 L 448.909 262 446.455 259.545 C 445.105 258.195, 444 255.956, 444 254.570 C 444 253.183, 448.050 241.227, 453 228 L 462 203.951 462 177.476 C 462 162.914, 461.663 151.024, 461.250 151.052 C 460.837 151.081, 451.050 155.278, 439.500 160.378 L 418.500 169.652 418.236 202.876 L 417.973 236.100 421.028 240.541 C 426.069 247.867, 431.829 260.881, 434.732 271.500 L 437.465 281.500 437.476 335.500 L 437.488 389.500 434.834 399.121 C 431.824 410.035, 425.844 422.675, 419.516 431.500 C 411.007 443.367, 392.013 459.438, 381.206 463.914 L 378.098 465.202 377.799 489.351 C 377.508 512.814, 377.434 513.593, 375.166 516.773 C 372.287 520.809, 366.257 524, 361.508 524 C 356.605 524, 352.471 522.081, 346 516.802 C 342.975 514.333, 327.809 503.265, 312.297 492.205 L 284.095 472.095 219.297 471.775 L 154.500 471.456 145.500 468.675 C 111.983 458.320, 88.494 435.741, 78.736 404.500 C 74.186 389.932, 73.777 383.251, 74.206 330.500 L 74.604 281.500 77.233 271.794 C 80.095 261.228, 86.004 247.762, 90.899 240.647 L 94 236.140 94 202.755 L 94 169.370 90.250 167.557 C 88.188 166.559, 81.100 163.388, 74.500 160.509 C 20.107 136.785, 6.077 130.545, 3.250 128.820 L 0 126.837 0 325.920 L 0 525.004 258.250 524.752 L 516.500 524.500 516.720 262.250 L 516.939 0 258.470 0 L 0 0 0 57.568 M 0.468 58 C 0.468 89.625, 0.595 102.562, 0.749 86.750 C 0.904 70.937, 0.904 45.062, 0.749 29.250 C 0.595 13.437, 0.468 26.375, 0.468 58 M 0.490 326 C 0.490 435.725, 0.607 480.613, 0.750 425.750 C 0.893 370.887, 0.893 281.113, 0.750 226.250 C 0.607 171.387, 0.490 216.275, 0.490 326 M 165 216.054 C 147.103 218.287, 132.392 223.921, 121.500 232.715 C 110.104 241.915, 100.339 257.431, 95.752 273.622 C 93.570 281.324, 93.521 282.684, 93.522 334.500 L 93.524 387.500 96.316 396.451 C 105.224 425.013, 124.765 443.907, 152.817 451.081 C 159.834 452.876, 164.502 453, 224.949 453 C 284.923 453, 289.826 453.128, 293.039 454.778 C 294.942 455.756, 302.125 461.047, 309 466.536 C 320.203 475.481, 357.299 502.999, 358.157 503.001 C 358.346 503.001, 358.380 492.989, 358.233 480.751 C 357.907 453.495, 357.711 454.019, 370.491 447.947 C 388.358 439.459, 402.210 426.019, 410.118 409.500 C 418.424 392.151, 419.261 384.171, 418.734 327.357 C 418.269 277.278, 418.173 276.347, 411.985 261.804 C 403.677 242.281, 388.319 227.201, 370.336 220.909 C 360.674 217.529, 351.262 216.013, 336 215.378 C 311.465 214.356, 291.120 218.074, 269.306 227.565 C 263.699 230.004, 257.849 232, 256.306 231.999 C 254.763 231.999, 250.634 230.643, 247.132 228.986 C 237.272 224.321, 224.863 220.215, 213.688 217.920 C 201.955 215.509, 177.023 214.554, 165 216.054 M 189.500 278.412 C 179.786 282.729, 174.461 299.700, 178.467 313.575 C 182.302 326.857, 192.113 333.277, 200.634 328.081 C 216.131 318.632, 215.221 285.163, 199.282 278.371 C 195.328 276.686, 193.364 276.694, 189.500 278.412 M 314.500 277.708 C 310.474 278.706, 305.708 283.393, 303.129 288.893 C 300.900 293.646, 300.500 295.870, 300.500 303.500 C 300.500 316.373, 304.264 324.443, 312.200 328.589 C 322.404 333.920, 333.271 323.085, 334.689 306.166 C 336.100 289.336, 325.856 274.896, 314.500 277.708 M 191.455 360.455 C 186.277 365.632, 188.895 373.201, 199.092 382.534 C 208.527 391.170, 218.261 396.577, 231.693 400.640 C 239.532 403.012, 242.148 403.306, 255.500 403.320 C 267.759 403.332, 271.962 402.940, 278.500 401.177 C 295.381 396.625, 313.871 384.950, 320.824 374.451 C 324.677 368.635, 324.830 365.140, 321.411 361.077 C 319.304 358.572, 318.068 358, 314.766 358 C 311.092 358, 310.087 358.627, 304.105 364.658 C 290.743 378.127, 279.080 383.067, 258.960 383.779 C 245.083 384.271, 238.427 383.094, 227.566 378.230 C 221.315 375.431, 212.336 368.741, 208.145 363.760 C 203.038 357.691, 195.676 356.233, 191.455 360.455" stroke="none" fill="#d0e4f1" fill-rule="evenodd"/></svg>